<svg xmlns="http://www.w3.org/2000/svg" viewBox="0 0 1200 630" role="img" aria-label="A short stack of banknotes">
  <rect width="1200" height="630" fill="#faf9f7"/>
  <circle cx="240" cy="216" r="160" fill="none" stroke="#14140f" stroke-width="5" opacity="0.14"/>
  <g transform="translate(16 6) rotate(1.1 600 315) scale(0.970) translate(18.6 9.7)">
  <g transform="translate(300 380) rotate(-4 300 60)"><rect x="0" y="0" width="600" height="150" rx="14" fill="#ffffff" stroke="#14140f" stroke-width="4"/><circle cx="300" cy="75" r="37" fill="none" stroke="#14140f" stroke-width="4" opacity="1"/><rect x="40" y="60" width="60" height="10" rx="5" fill="#14140f" opacity="0.4"/><rect x="500" y="80" width="60" height="10" rx="5" fill="#14140f" opacity="0.4"/></g><g transform="translate(314 346) rotate(3 300 60)"><rect x="0" y="0" width="600" height="150" rx="14" fill="#ffffff" stroke="#14140f" stroke-width="4"/><circle cx="300" cy="75" r="41" fill="none" stroke="#14140f" stroke-width="4" opacity="1"/><rect x="40" y="60" width="60" height="10" rx="5" fill="#14140f" opacity="0.4"/><rect x="500" y="80" width="60" height="10" rx="5" fill="#14140f" opacity="0.4"/></g><g transform="translate(328 312) rotate(1 300 60)"><rect x="0" y="0" width="600" height="150" rx="14" fill="#ffffff" stroke="#14140f" stroke-width="4"/><circle cx="300" cy="75" r="45" fill="none" stroke="#14140f" stroke-width="4" opacity="1"/><rect x="40" y="60" width="60" height="10" rx="5" fill="#14140f" opacity="0.4"/><rect x="500" y="80" width="60" height="10" rx="5" fill="#14140f" opacity="0.4"/></g><g transform="translate(342 278) rotate(5 300 60)"><rect x="0" y="0" width="600" height="150" rx="14" fill="#ffffff" stroke="#14140f" stroke-width="4"/><circle cx="300" cy="75" r="39" fill="none" stroke="#14140f" stroke-width="4" opacity="1"/><rect x="40" y="60" width="60" height="10" rx="5" fill="#14140f" opacity="0.4"/><rect x="500" y="80" width="60" height="10" rx="5" fill="#14140f" opacity="0.4"/></g><g transform="translate(356 244) rotate(5 300 60)"><rect x="0" y="0" width="600" height="150" rx="14" fill="#ffffff" stroke="#14140f" stroke-width="4"/><circle cx="300" cy="75" r="42" fill="none" stroke="#14140f" stroke-width="4" opacity="1"/><rect x="40" y="60" width="60" height="10" rx="5" fill="#14140f" opacity="0.4"/><rect x="500" y="80" width="60" height="10" rx="5" fill="#14140f" opacity="0.4"/></g>
  </g>
</svg>
