<svg xmlns="http://www.w3.org/2000/svg" viewBox="0 0 1200 630" role="img" aria-label="A short stack of banknotes">
  <rect width="1200" height="630" fill="#faf9f7"/>
  <g opacity="0.13"><path d="M818 40 l-70 130" stroke="#14140f" stroke-width="6"/><path d="M838 40 l-70 130" stroke="#14140f" stroke-width="6"/><path d="M858 40 l-70 130" stroke="#14140f" stroke-width="6"/><path d="M878 40 l-70 130" stroke="#14140f" stroke-width="6"/><path d="M898 40 l-70 130" stroke="#14140f" stroke-width="6"/><path d="M918 40 l-70 130" stroke="#14140f" stroke-width="6"/></g>
  <g transform="translate(-16 17) rotate(2.0 600 315) scale(1.050) translate(-28.6 -15.0)">
  <g transform="translate(300 380) rotate(-4 300 60)"><rect x="0" y="0" width="600" height="150" rx="14" fill="#ffffff" stroke="#14140f" stroke-width="4"/><circle cx="300" cy="75" r="39" fill="none" stroke="#14140f" stroke-width="4" opacity="1"/><rect x="40" y="60" width="60" height="10" rx="5" fill="#14140f" opacity="0.4"/><rect x="500" y="80" width="60" height="10" rx="5" fill="#14140f" opacity="0.4"/></g><g transform="translate(314 346) rotate(-4 300 60)"><rect x="0" y="0" width="600" height="150" rx="14" fill="#ffffff" stroke="#14140f" stroke-width="4"/><circle cx="300" cy="75" r="35" fill="none" stroke="#14140f" stroke-width="4" opacity="1"/><rect x="40" y="60" width="60" height="10" rx="5" fill="#14140f" opacity="0.4"/><rect x="500" y="80" width="60" height="10" rx="5" fill="#14140f" opacity="0.4"/></g><g transform="translate(328 312) rotate(6 300 60)"><rect x="0" y="0" width="600" height="150" rx="14" fill="#ffffff" stroke="#14140f" stroke-width="4"/><circle cx="300" cy="75" r="43" fill="none" stroke="#14140f" stroke-width="4" opacity="1"/><rect x="40" y="60" width="60" height="10" rx="5" fill="#14140f" opacity="0.4"/><rect x="500" y="80" width="60" height="10" rx="5" fill="#14140f" opacity="0.4"/></g><g transform="translate(342 278) rotate(-3 300 60)"><rect x="0" y="0" width="600" height="150" rx="14" fill="#ffffff" stroke="#14140f" stroke-width="4"/><circle cx="300" cy="75" r="37" fill="none" stroke="#14140f" stroke-width="4" opacity="1"/><rect x="40" y="60" width="60" height="10" rx="5" fill="#14140f" opacity="0.4"/><rect x="500" y="80" width="60" height="10" rx="5" fill="#14140f" opacity="0.4"/></g>
  </g>
</svg>
