<svg xmlns="http://www.w3.org/2000/svg" viewBox="0 0 1200 630" role="img" aria-label="A grid of catalogue cards with one picked out">
  <rect width="1200" height="630" fill="#faf9f7"/>
  <g opacity="0.18" transform="translate(820 48)"><circle cx="60" cy="60" r="3" fill="#14140f"/><circle cx="60" cy="86" r="3" fill="#14140f"/><circle cx="60" cy="112" r="3" fill="#14140f"/><circle cx="60" cy="138" r="3" fill="#14140f"/><circle cx="86" cy="60" r="3" fill="#14140f"/><circle cx="86" cy="86" r="3" fill="#14140f"/><circle cx="86" cy="112" r="3" fill="#14140f"/><circle cx="86" cy="138" r="3" fill="#14140f"/><circle cx="112" cy="60" r="3" fill="#14140f"/><circle cx="112" cy="86" r="3" fill="#14140f"/><circle cx="112" cy="112" r="3" fill="#14140f"/><circle cx="112" cy="138" r="3" fill="#14140f"/><circle cx="138" cy="60" r="3" fill="#14140f"/><circle cx="138" cy="86" r="3" fill="#14140f"/><circle cx="138" cy="112" r="3" fill="#14140f"/><circle cx="138" cy="138" r="3" fill="#14140f"/><circle cx="164" cy="60" r="3" fill="#14140f"/><circle cx="164" cy="86" r="3" fill="#14140f"/><circle cx="164" cy="112" r="3" fill="#14140f"/><circle cx="164" cy="138" r="3" fill="#14140f"/><circle cx="190" cy="60" r="3" fill="#14140f"/><circle cx="190" cy="86" r="3" fill="#14140f"/><circle cx="190" cy="112" r="3" fill="#14140f"/><circle cx="190" cy="138" r="3" fill="#14140f"/><circle cx="216" cy="60" r="3" fill="#14140f"/><circle cx="216" cy="86" r="3" fill="#14140f"/><circle cx="216" cy="112" r="3" fill="#14140f"/><circle cx="216" cy="138" r="3" fill="#14140f"/></g>
  <g transform="translate(-26 -9) rotate(0.0 600 315) scale(0.950) translate(31.6 16.6)">
  <g opacity="0.26"><rect x="150" y="105" width="266" height="176" rx="18" fill="none" stroke="#14140f" stroke-width="3"/><rect x="176" y="219" width="83" height="12" rx="6" fill="#14140f"/></g><g opacity="0.26"><rect x="450" y="105" width="266" height="176" rx="18" fill="none" stroke="#14140f" stroke-width="3"/><rect x="476" y="219" width="83" height="12" rx="6" fill="#14140f"/></g><g opacity="0.26"><rect x="750" y="105" width="266" height="176" rx="18" fill="none" stroke="#14140f" stroke-width="3"/><rect x="776" y="219" width="87" height="12" rx="6" fill="#14140f"/></g><g opacity="0.26"><rect x="150" y="315" width="266" height="176" rx="18" fill="none" stroke="#14140f" stroke-width="3"/><rect x="176" y="429" width="77" height="12" rx="6" fill="#14140f"/></g><g opacity="1"><rect x="450" y="315" width="266" height="176" rx="18" fill="#ffffff" stroke="#14140f" stroke-width="4"/><rect x="476" y="429" width="98" height="12" rx="6" fill="#14140f"/></g><g opacity="0.26"><rect x="750" y="315" width="266" height="176" rx="18" fill="none" stroke="#14140f" stroke-width="3"/><rect x="776" y="429" width="97" height="12" rx="6" fill="#14140f"/></g>
  </g>
</svg>
