<svg xmlns="http://www.w3.org/2000/svg" viewBox="0 0 1200 630" role="img" aria-label="A profile with a stack of links below it">
  <rect width="1200" height="630" fill="#faf9f7"/>
  <g opacity="0.13"><path d="M573 40 l-70 130" stroke="#14140f" stroke-width="6"/><path d="M593 40 l-70 130" stroke="#14140f" stroke-width="6"/><path d="M613 40 l-70 130" stroke="#14140f" stroke-width="6"/><path d="M633 40 l-70 130" stroke="#14140f" stroke-width="6"/><path d="M653 40 l-70 130" stroke="#14140f" stroke-width="6"/><path d="M673 40 l-70 130" stroke="#14140f" stroke-width="6"/></g>
  <g transform="translate(8 -15) rotate(-1.1 600 315) scale(1.030) translate(-17.5 -9.2)">
  <rect x="450" y="70" width="300" height="500" rx="33" fill="#ffffff" stroke="#14140f" stroke-width="4"/><circle cx="600" cy="180" r="44" fill="#14140f"/><rect x="500" y="250" width="139" height="10" rx="5" fill="#14140f" opacity="0.35"/><rect x="500" y="278" width="165" height="10" rx="5" fill="#14140f" opacity="0.35"/><rect x="490" y="330" width="220" height="44" rx="22" fill="#14140f" stroke="#14140f" stroke-width="3" opacity="1"/><rect x="490" y="388" width="220" height="44" rx="22" fill="none" stroke="#14140f" stroke-width="3" opacity="0.3"/><rect x="490" y="446" width="220" height="44" rx="22" fill="none" stroke="#14140f" stroke-width="3" opacity="0.3"/>
  </g>
</svg>
