<svg xmlns="http://www.w3.org/2000/svg" viewBox="0 0 1200 630" role="img" aria-label="A wrapped gift box with a ribbon">
  <rect width="1200" height="630" fill="#faf9f7"/>
  <g opacity="0.13"><path d="M960 40 l-70 130" stroke="#14140f" stroke-width="6"/><path d="M980 40 l-70 130" stroke="#14140f" stroke-width="6"/><path d="M1000 40 l-70 130" stroke="#14140f" stroke-width="6"/><path d="M1020 40 l-70 130" stroke="#14140f" stroke-width="6"/><path d="M1040 40 l-70 130" stroke="#14140f" stroke-width="6"/><path d="M1060 40 l-70 130" stroke="#14140f" stroke-width="6"/></g>
  <g transform="translate(4 -9) rotate(-0.6 600 315) scale(0.980) translate(12.2 6.4)">
  <rect x="400" y="250" width="400" height="270" rx="18" fill="#ffffff" stroke="#14140f" stroke-width="4"/><rect x="380" y="190" width="440" height="70" rx="14" fill="#ffffff" stroke="#14140f" stroke-width="4"/><path d="M600 190 v330" fill="none" stroke="#14140f" stroke-width="4" opacity="1"/><path d="M600 190 c-70 -80 -150 -40 -110 10 M600 190 c70 -80 150 -40 110 10" fill="none" stroke="#14140f" stroke-width="4" opacity="1" stroke-linecap="round"/>
  </g>
</svg>
