<svg xmlns="http://www.w3.org/2000/svg" viewBox="0 0 1200 630" role="img" aria-label="A parcel part way along a dotted route">
  <rect width="1200" height="630" fill="#faf9f7"/>
  <g opacity="0.13"><path d="M588 40 l-70 130" stroke="#14140f" stroke-width="6"/><path d="M608 40 l-70 130" stroke="#14140f" stroke-width="6"/><path d="M628 40 l-70 130" stroke="#14140f" stroke-width="6"/><path d="M648 40 l-70 130" stroke="#14140f" stroke-width="6"/><path d="M668 40 l-70 130" stroke="#14140f" stroke-width="6"/><path d="M688 40 l-70 130" stroke="#14140f" stroke-width="6"/></g>
  <g transform="translate(5 6) rotate(-3.0 600 315) scale(1.030) translate(-17.5 -9.2)">
  <circle cx="180" cy="201" r="18" fill="#14140f"/><path d="M180 201 C 400 224, 620 472, 1020 219" fill="none" stroke="#14140f" stroke-width="4" opacity="0.34" stroke-dasharray="12 14"/><g transform="translate(593 150) scale(0.8)"><path d="M0 34 l76 -34 l76 34 v84 l-76 34 l-76 -34 z" fill="#ffffff" stroke="#14140f" stroke-width="5" stroke-linejoin="round"/><path d="M0 34 l76 34 l76 -34 M76 68 v84" fill="none" stroke="#14140f" stroke-width="5" opacity="1"/></g><g transform="translate(1020 219)"><path d="M-38 56 v-66 l38 -32 l38 32 v66 z" fill="#ffffff" stroke="#14140f" stroke-width="4" stroke-linejoin="round"/><rect x="-15" y="16" width="30" height="40" fill="#14140f"/></g>
  </g>
</svg>
