<svg xmlns="http://www.w3.org/2000/svg" viewBox="0 0 1200 630" role="img" aria-label="Bars of uneven height with the tallest picked out">
  <rect width="1200" height="630" fill="#faf9f7"/>
  <g opacity="0.18" transform="translate(345 163)"><circle cx="60" cy="60" r="3" fill="#14140f"/><circle cx="60" cy="86" r="3" fill="#14140f"/><circle cx="60" cy="112" r="3" fill="#14140f"/><circle cx="60" cy="138" r="3" fill="#14140f"/><circle cx="86" cy="60" r="3" fill="#14140f"/><circle cx="86" cy="86" r="3" fill="#14140f"/><circle cx="86" cy="112" r="3" fill="#14140f"/><circle cx="86" cy="138" r="3" fill="#14140f"/><circle cx="112" cy="60" r="3" fill="#14140f"/><circle cx="112" cy="86" r="3" fill="#14140f"/><circle cx="112" cy="112" r="3" fill="#14140f"/><circle cx="112" cy="138" r="3" fill="#14140f"/><circle cx="138" cy="60" r="3" fill="#14140f"/><circle cx="138" cy="86" r="3" fill="#14140f"/><circle cx="138" cy="112" r="3" fill="#14140f"/><circle cx="138" cy="138" r="3" fill="#14140f"/><circle cx="164" cy="60" r="3" fill="#14140f"/><circle cx="164" cy="86" r="3" fill="#14140f"/><circle cx="164" cy="112" r="3" fill="#14140f"/><circle cx="164" cy="138" r="3" fill="#14140f"/><circle cx="190" cy="60" r="3" fill="#14140f"/><circle cx="190" cy="86" r="3" fill="#14140f"/><circle cx="190" cy="112" r="3" fill="#14140f"/><circle cx="190" cy="138" r="3" fill="#14140f"/><circle cx="216" cy="60" r="3" fill="#14140f"/><circle cx="216" cy="86" r="3" fill="#14140f"/><circle cx="216" cy="112" r="3" fill="#14140f"/><circle cx="216" cy="138" r="3" fill="#14140f"/></g>
  <g transform="translate(12 -7) rotate(-2.7 600 315) scale(0.960) translate(25.0 13.1)">
  <rect x="190" y="312" width="77" height="168" rx="10" fill="#14140f" opacity="0.26"/><rect x="293" y="299" width="77" height="181" rx="10" fill="#14140f" opacity="0.26"/><rect x="395" y="208" width="77" height="272" rx="10" fill="#14140f" opacity="1"/><rect x="498" y="289" width="77" height="191" rx="10" fill="#14140f" opacity="0.26"/><rect x="600" y="378" width="77" height="102" rx="10" fill="#14140f" opacity="0.26"/><rect x="703" y="358" width="77" height="122" rx="10" fill="#14140f" opacity="0.26"/><rect x="805" y="402" width="77" height="78" rx="10" fill="#14140f" opacity="0.26"/><rect x="908" y="296" width="77" height="184" rx="10" fill="#14140f" opacity="0.26"/><path d="M160 480 h880" fill="none" stroke="#14140f" stroke-width="4" opacity="1"/>
  </g>
</svg>
