<svg xmlns="http://www.w3.org/2000/svg" viewBox="0 0 1200 630" role="img" aria-label="A jar with a label">
  <rect width="1200" height="630" fill="#faf9f7"/>
  <g opacity="0.13"><path d="M407 40 l-70 130" stroke="#14140f" stroke-width="6"/><path d="M427 40 l-70 130" stroke="#14140f" stroke-width="6"/><path d="M447 40 l-70 130" stroke="#14140f" stroke-width="6"/><path d="M467 40 l-70 130" stroke="#14140f" stroke-width="6"/><path d="M487 40 l-70 130" stroke="#14140f" stroke-width="6"/><path d="M507 40 l-70 130" stroke="#14140f" stroke-width="6"/></g>
  <g transform="translate(0 -9) rotate(-2.7 600 315) scale(1.060) translate(-34.0 -17.8)">
  <rect x="470" y="150" width="260" height="60" rx="12" fill="#ffffff" stroke="#14140f" stroke-width="4"/><path d="M490 210 h220 v286 a30 30 0 0 1 -30 30 h-160 a30 30 0 0 1 -30 -30 z" fill="#ffffff" stroke="#14140f" stroke-width="4"/><rect x="520" y="330" width="160" height="90" rx="8" fill="none" stroke="#14140f" stroke-width="3" opacity="0.35"/>
  </g>
</svg>
